HIERARCHY
ROOT Pelvis
{
	OFFSET 0.000000 0.000000 0.000000
	CHANNELS 6 Xposition Yposition Zposition Xrotation Yrotation Zrotation
	JOINT LeftUpLeg_virtual
	{
		OFFSET 0.000000 0.000000 0.000000
		CHANNELS 3 Xrotation Yrotation Zrotation
		JOINT LeftUpLeg
		{
			OFFSET 18.735201 -5.666702 -4.541200
			CHANNELS 3 Xrotation Yrotation Zrotation
			JOINT LeftLeg
			{
				OFFSET -0.021200 -31.938179 0.493100
				CHANNELS 3 Xrotation Yrotation Zrotation
				JOINT LeftFoot
				{
					OFFSET 0.021200 -31.938179 -4.336299
					CHANNELS 3 Xrotation Yrotation Zrotation
					JOINT LeftToeBase
					{
						OFFSET 0.943001 -26.722000 15.023500
						CHANNELS 3 Xrotation Yrotation Zrotation
						End Site
						{
							OFFSET 0 0 0
						}
					}
				}
			}
		}
	}
	JOINT RightUpLeg_virtual
	{
		OFFSET 0.000000 0.000000 0.000000
		CHANNELS 3 Xrotation Yrotation Zrotation
		JOINT RightUpLeg
		{
			OFFSET -18.735201 -5.666702 -4.541200
			CHANNELS 3 Xrotation Yrotation Zrotation
			JOINT RightLeg
			{
				OFFSET 0.018946 -31.938133 0.493100
				CHANNELS 3 Xrotation Yrotation Zrotation
				JOINT RightFoot
				{
					OFFSET -0.018946 -31.938126 -4.336299
					CHANNELS 3 Xrotation Yrotation Zrotation
					JOINT RightToeBase
					{
						OFFSET -0.943001 -26.722004 15.023500
						CHANNELS 3 Xrotation Yrotation Zrotation
						End Site
						{
							OFFSET 0 0 0
						}
					}
				}
			}
		}
	}
	JOINT Hips_virtual
	{
		OFFSET 0.000000 0.000000 0.000000
		CHANNELS 3 Xrotation Yrotation Zrotation
		JOINT Hips
		{
			OFFSET -0.000000 -0.000000 -0.000000
			CHANNELS 3 Xrotation Yrotation Zrotation
			JOINT Spine
			{
				OFFSET 0.000000 10.199997 -0.299500
				CHANNELS 3 Xrotation Yrotation Zrotation
				JOINT Spine1
				{
					OFFSET 0.000000 11.900002 -1.516600
					CHANNELS 3 Xrotation Yrotation Zrotation
					JOINT Spine2
					{
						OFFSET 0.000000 13.600006 -2.842500
						CHANNELS 3 Xrotation Yrotation Zrotation
						JOINT Neck_virtual
						{
							OFFSET 0.000000 0.000000 0.000000
							CHANNELS 3 Xrotation Yrotation Zrotation
							JOINT Neck
							{
								OFFSET 0.000000 9.624100 -2.890100
								CHANNELS 3 Xrotation Yrotation Zrotation
								JOINT Head
								{
									OFFSET 0.000000 14.068802 -1.351900
									CHANNELS 3 Xrotation Yrotation Zrotation
									End Site
									{
										OFFSET 0 0 0
									}
								}
							}
						}
						JOINT LeftShoulder_virtual
						{
							OFFSET 0.000000 0.000000 0.000000
							CHANNELS 3 Xrotation Yrotation Zrotation
							JOINT LeftShoulder
							{
								OFFSET 15.263000 10.923401 -0.547700
								CHANNELS 3 Xrotation Yrotation Zrotation
								JOINT LeftArm
								{
									OFFSET 25.438599 -2.830597 -13.032500
									CHANNELS 3 Xrotation Yrotation Zrotation
									JOINT LeftForeArm
									{
										OFFSET 29.960503 0.000000 0.000000
										CHANNELS 3 Xrotation Yrotation Zrotation
										JOINT LeftHand
										{
											OFFSET 27.849251 0.000000 0.000000
											CHANNELS 3 Xrotation Yrotation Zrotation
											End Site
											{
												OFFSET 0 0 0
											}
										}
									}
								}
							}
						}
						JOINT RightShoulder_virtual
						{
							OFFSET 0.000000 0.000000 0.000000
							CHANNELS 3 Xrotation Yrotation Zrotation
							JOINT RightShoulder
							{
								OFFSET -15.263000 10.923401 -0.547700
								CHANNELS 3 Xrotation Yrotation Zrotation
								JOINT RightArm
								{
									OFFSET -25.438599 -2.830597 -13.032500
									CHANNELS 3 Xrotation Yrotation Zrotation
									JOINT RightForeArm
									{
										OFFSET -29.960503 0.000000 0.000000
										CHANNELS 3 Xrotation Yrotation Zrotation
										JOINT RightHand
										{
											OFFSET -27.849251 0.000000 0.000000
											CHANNELS 3 Xrotation Yrotation Zrotation
											End Site
											{
												OFFSET 0 0 0
											}
										}
									}
								}
							}
						}
					}
				}
			}
		}
	}
}
MOTION
Frames: 4
Frame Time: 0.03333333
1.634258 93.239868 11.239149 0.000000 0.000000 0.000000 -31.923942 -38.380312 -21.457649 0.217989 12.877611 2.064178 35.559987 -1.652290 -4.702074 -12.667359 8.300089 8.497210 0.000000 0.000000 0.000000 -31.923942 -38.380312 -21.457649 16.057063 -8.374728 -9.672270 28.296417 5.071835 -5.973935 -18.072797 -12.231720 7.747636 0.000000 0.000000 0.000000 -31.923942 -38.380312 -21.457649 -0.000001 -0.000001 -0.000000 11.171033 -4.806402 -0.927995 3.545657 -2.400649 -0.151373 0.000000 0.000000 0.000000 3.557023 -2.388382 -0.108335 0.538387 0.129775 -0.297236 0.000000 0.000000 0.000000 3.557023 -2.388382 -0.108335 0.576507 -16.606948 -10.307152 -20.089161 4.591496 -37.031216 -0.000020 -67.698895 -0.000014 0.000000 0.000000 0.000000 3.557023 -2.388382 -0.108335 0.014987 14.189137 15.480069 -11.472629 -5.400291 60.640380 -0.000021 39.601027 0.000017 0.000000 0.000000 0.000000 
1.972149 93.239334 11.491358 0.000000 0.000000 0.000000 -32.439044 -39.395199 -22.281704 0.449403 13.157548 1.822269 35.533622 -2.053706 -5.126390 -13.077719 9.534350 9.685357 0.000000 0.000000 0.000000 -32.439044 -39.395199 -22.281704 15.398701 -8.160726 -10.057162 28.580409 4.777607 -6.126803 -17.278550 -12.500299 8.400688 0.000000 0.000000 0.000000 -32.439044 -39.395199 -22.281704 0.000001 0.000002 -0.000000 11.171295 -4.806607 -0.924662 3.545658 -2.400645 -0.151373 0.000000 0.000000 0.000000 3.557022 -2.388383 -0.108336 0.525198 0.130874 -0.300199 0.000000 0.000000 0.000000 3.557022 -2.388383 -0.108336 0.579612 -16.606963 -10.288916 -19.994004 4.524804 -36.978613 -0.000025 -67.695193 -0.000028 0.000000 0.000000 0.000000 3.557022 -2.388383 -0.108336 0.007982 14.220991 15.529859 -11.429881 -5.404811 60.569974 0.000036 39.667194 -0.000030 0.000000 0.000000 0.000000 
2.299749 93.239639 11.745174 0.000000 0.000000 0.000000 -32.980613 -40.403786 -23.129693 0.828407 13.451918 1.417560 35.351768 -2.427414 -5.450750 -13.761422 10.760606 11.087643 0.000000 0.000000 0.000000 -32.980613 -40.403786 -23.129693 14.729935 -8.080679 -10.462210 28.894057 4.947521 -6.154966 -16.489846 -13.365433 8.762900 0.000000 0.000000 0.000000 -32.980613 -40.403786 -23.129693 -0.000003 -0.000000 0.000001 11.171588 -4.806829 -0.921245 3.545659 -2.400645 -0.151372 0.000000 0.000000 0.000000 3.557021 -2.388383 -0.108336 0.510768 0.134943 -0.309683 0.000000 0.000000 0.000000 3.557021 -2.388383 -0.108336 0.580767 -16.582625 -10.279780 -19.895771 4.421317 -36.921790 -0.000001 -67.679457 0.000004 0.000000 0.000000 0.000000 3.557021 -2.388383 -0.108336 0.005023 14.258427 15.543484 -11.398956 -5.416207 60.537517 -0.000049 39.702954 0.000042 0.000000 0.000000 0.000000 
2.612707 93.249413 12.010801 0.000000 0.000000 0.000000 -33.550647 -41.406669 -24.001109 1.239967 13.657774 1.248582 35.058599 -2.877300 -5.825325 -14.247958 12.115882 11.747992 0.000000 0.000000 0.000000 -33.550647 -41.406669 -24.001109 14.149063 -8.107121 -10.719779 29.153023 4.891802 -6.122765 -15.745227 -14.817107 8.784878 0.000000 0.000000 0.000000 -33.550647 -41.406669 -24.001109 0.000000 -0.000001 0.000000 11.171661 -4.806154 -0.920198 3.545660 -2.400647 -0.151373 0.000000 0.000000 0.000000 3.557021 -2.388377 -0.108335 0.496879 0.141400 -0.323982 0.000000 0.000000 0.000000 3.557021 -2.388377 -0.108335 0.581072 -16.531949 -10.273113 -19.827078 4.304712 -36.893851 0.000009 -67.649151 0.000012 0.000000 0.000000 0.000000 3.557021 -2.388377 -0.108335 0.004874 14.295182 15.534099 -11.379694 -5.432802 60.532080 -0.000021 39.716741 0.000022 0.000000 0.000000 0.000000 
